<?xml version="1.0" encoding="UTF-8" standalone="no"?>
<svg
   xmlns:dc="http://purl.org/dc/elements/1.1/"
   xmlns:cc="http://creativecommons.org/ns#"
   xmlns:rdf="http://www.w3.org/1999/02/22-rdf-syntax-ns#"
   xmlns:svg="http://www.w3.org/2000/svg"
   xmlns="http://www.w3.org/2000/svg"
   xmlns:sodipodi="http://sodipodi.sourceforge.net/DTD/sodipodi-0.dtd"
   xmlns:inkscape="http://www.inkscape.org/namespaces/inkscape"
   width="192px"
   height="320px"
   viewBox="-1 -1 12 20"
   id="svg5895"
   version="1.1"
   inkscape:version="0.48.4 r9939"
   sodipodi:docname="7-segment_running03.svg">
  <metadata
     id="metadata5909">
    <rdf:RDF>
      <cc:Work
         rdf:about="">
        <dc:format>image/svg+xml</dc:format>
        <dc:type
           rdf:resource="http://purl.org/dc/dcmitype/StillImage" />
        <dc:title></dc:title>
      </cc:Work>
    </rdf:RDF>
  </metadata>
  <defs
     id="defs5907" />
  <sodipodi:namedview
     pagecolor="#ffffff"
     bordercolor="#666666"
     borderopacity="1"
     objecttolerance="10"
     gridtolerance="10"
     guidetolerance="10"
     inkscape:pageopacity="0"
     inkscape:pageshadow="2"
     inkscape:window-width="1364"
     inkscape:window-height="718"
     id="namedview5905"
     showgrid="false"
     inkscape:zoom="4.7199378"
     inkscape:cx="57.325129"
     inkscape:cy="275.67923"
     inkscape:window-x="0"
     inkscape:window-y="25"
     inkscape:window-maximized="1"
     inkscape:current-layer="svg5895" />
  <g
     id="g6370">
    <polygon
       transform="matrix(0.1,0,0,0.1,0.15543071,-0.47209738)"
       id="a"
       points="8,0 9,1 8,2 2,2 1,1 2,0 "
       style="fill:#ff0000;fill-rule:evenodd;stroke:#ffffff;stroke-width:0.25;stroke-linecap:butt;stroke-linejoin:miter;stroke-opacity:1" />
    <polygon
       transform="matrix(0.1,0,0,0.1,0.15543071,-0.47209738)"
       id="b"
       points="10,8 9,9 8,8 8,2 9,1 10,2 "
       style="fill:#666666;fill-rule:evenodd;stroke:#ffffff;stroke-width:0.25000000000000000;stroke-linecap:butt;stroke-linejoin:miter;stroke-opacity:1" />
    <polygon
       transform="matrix(0.1,0,0,0.1,0.15543071,-0.47209738)"
       id="c"
       points="10,16 9,17 8,16 8,10 9,9 10,10 "
       style="fill:#ff0000;fill-rule:evenodd;stroke:#ffffff;stroke-width:0.25;stroke-linecap:butt;stroke-linejoin:miter;stroke-opacity:1" />
    <polygon
       transform="matrix(0.1,0,0,0.1,0.15543071,-0.47209738)"
       id="d"
       points="2,18 1,17 2,16 8,16 9,17 8,18 "
       style="fill:#ff0000;fill-rule:evenodd;stroke:#ffffff;stroke-width:0.25;stroke-linecap:butt;stroke-linejoin:miter;stroke-opacity:1" />
    <polygon
       transform="matrix(0.1,0,0,0.1,0.15543071,-0.47209738)"
       id="e"
       points="0,10 1,9 2,10 2,16 1,17 0,16 "
       style="fill:#ff0000;fill-rule:evenodd;stroke:#ffffff;stroke-width:0.25;stroke-linecap:butt;stroke-linejoin:miter;stroke-opacity:1" />
    <polygon
       transform="matrix(0.1,0,0,0.1,0.15543071,-0.47209738)"
       id="f"
       points="0,2 1,1 2,2 2,8 1,9 0,8 "
       style="fill:#ff0000;fill-rule:evenodd;stroke:#ffffff;stroke-width:0.25;stroke-linecap:butt;stroke-linejoin:miter;stroke-opacity:1" />
    <polygon
       transform="matrix(0.1,0,0,0.1,0.15543071,-0.47209738)"
       id="g"
       points="8,8 9,9 8,10 2,10 1,9 2,8 "
       style="fill:#666666;fill-rule:evenodd;stroke:#ffffff;stroke-width:0.25000000000000000;stroke-linecap:butt;stroke-linejoin:miter;stroke-opacity:1" />
  </g>
  <g
     id="g6361"
     transform="translate(0.00498366,0)">
    <polygon
       transform="matrix(0.1,0,0,0.1,1.2891967,-0.47209738)"
       id="a-8"
       points="2,0 8,0 9,1 8,2 2,2 1,1 "
       style="fill:#ff0000;fill-rule:evenodd;stroke:#ffffff;stroke-width:0.25;stroke-linecap:butt;stroke-linejoin:miter;stroke-opacity:1" />
    <polygon
       transform="matrix(0.1,0,0,0.1,1.2891967,-0.47209738)"
       id="b-9"
       points="10,2 10,8 9,9 8,8 8,2 9,1 "
       style="fill:#ff0000;fill-rule:evenodd;stroke:#ffffff;stroke-width:0.25;stroke-linecap:butt;stroke-linejoin:miter;stroke-opacity:1" />
    <polygon
       transform="matrix(0.1,0,0,0.1,1.2891967,-0.47209738)"
       id="c-6"
       points="10,10 10,16 9,17 8,16 8,10 9,9 "
       style="fill:#666666;fill-rule:evenodd;stroke:#ffffff;stroke-width:0.25;stroke-linecap:butt;stroke-linejoin:miter;stroke-opacity:1" />
    <polygon
       transform="matrix(0.1,0,0,0.1,1.2891967,-0.47209738)"
       id="d-4"
       points="8,18 2,18 1,17 2,16 8,16 9,17 "
       style="fill:#ff0000;fill-rule:evenodd;stroke:#ffffff;stroke-width:0.25;stroke-linecap:butt;stroke-linejoin:miter;stroke-opacity:1" />
    <polygon
       transform="matrix(0.1,0,0,0.1,1.2891967,-0.47209738)"
       id="e-1"
       points="0,16 0,10 1,9 2,10 2,16 1,17 "
       style="fill:#ff0000;fill-rule:evenodd;stroke:#ffffff;stroke-width:0.25;stroke-linecap:butt;stroke-linejoin:miter;stroke-opacity:1" />
    <polygon
       transform="matrix(0.1,0,0,0.1,1.2891967,-0.47209738)"
       id="f-9"
       points="0,8 0,2 1,1 2,2 2,8 1,9 "
       style="fill:#ff0000;fill-rule:evenodd;stroke:#ffffff;stroke-width:0.25;stroke-linecap:butt;stroke-linejoin:miter;stroke-opacity:1" />
    <polygon
       transform="matrix(0.1,0,0,0.1,1.2891967,-0.47209738)"
       id="g-8"
       points="2,8 8,8 9,9 8,10 2,10 1,9 "
       style="fill:#666666;fill-rule:evenodd;stroke:#ffffff;stroke-width:0.25;stroke-linecap:butt;stroke-linejoin:miter;stroke-opacity:1" />
  </g>
  <g
     id="g6352"
     transform="translate(0.00996733,0)">
    <polygon
       transform="matrix(0.1,0,0,0.1,2.4229627,-0.47209738)"
       id="a-7"
       points="2,2 1,1 2,0 8,0 9,1 8,2 "
       style="fill:#ff0000;fill-rule:evenodd;stroke:#ffffff;stroke-width:0.25;stroke-linecap:butt;stroke-linejoin:miter;stroke-opacity:1" />
    <polygon
       transform="matrix(0.1,0,0,0.1,2.4229627,-0.47209738)"
       id="b-3"
       points="8,2 9,1 10,2 10,8 9,9 8,8 "
       style="fill:#ff0000;fill-rule:evenodd;stroke:#ffffff;stroke-width:0.25;stroke-linecap:butt;stroke-linejoin:miter;stroke-opacity:1" />
    <polygon
       transform="matrix(0.1,0,0,0.1,2.4229627,-0.47209738)"
       id="c-3"
       points="8,10 9,9 10,10 10,16 9,17 8,16 "
       style="fill:#ff0000;fill-rule:evenodd;stroke:#ffffff;stroke-width:0.25;stroke-linecap:butt;stroke-linejoin:miter;stroke-opacity:1" />
    <polygon
       transform="matrix(0.1,0,0,0.1,2.4229627,-0.47209738)"
       id="d-1"
       points="8,16 9,17 8,18 2,18 1,17 2,16 "
       style="fill:#666666;fill-rule:evenodd;stroke:#ffffff;stroke-width:0.25;stroke-linecap:butt;stroke-linejoin:miter;stroke-opacity:1" />
    <polygon
       transform="matrix(0.1,0,0,0.1,2.4229627,-0.47209738)"
       id="e-7"
       points="2,16 1,17 0,16 0,10 1,9 2,10 "
       style="fill:#ff0000;fill-rule:evenodd;stroke:#ffffff;stroke-width:0.25;stroke-linecap:butt;stroke-linejoin:miter;stroke-opacity:1" />
    <polygon
       transform="matrix(0.1,0,0,0.1,2.4229627,-0.47209738)"
       id="f-1"
       points="2,8 1,9 0,8 0,2 1,1 2,2 "
       style="fill:#ff0000;fill-rule:evenodd;stroke:#ffffff;stroke-width:0.25;stroke-linecap:butt;stroke-linejoin:miter;stroke-opacity:1" />
    <polygon
       transform="matrix(0.1,0,0,0.1,2.4229627,-0.47209738)"
       id="g-1"
       points="2,10 1,9 2,8 8,8 9,9 8,10 "
       style="fill:#666666;fill-rule:evenodd;stroke:#ffffff;stroke-width:0.25;stroke-linecap:butt;stroke-linejoin:miter;stroke-opacity:1" />
  </g>
  <g
     id="g6343"
     transform="translate(0.01495123,0)">
    <polygon
       transform="matrix(0.1,0,0,0.1,3.5567287,-0.47209738)"
       id="a-74"
       points="8,2 2,2 1,1 2,0 8,0 9,1 "
       style="fill:#ff0000;fill-rule:evenodd;stroke:#ffffff;stroke-width:0.25;stroke-linecap:butt;stroke-linejoin:miter;stroke-opacity:1" />
    <polygon
       transform="matrix(0.1,0,0,0.1,3.5567287,-0.47209738)"
       id="b-2"
       points="8,8 8,2 9,1 10,2 10,8 9,9 "
       style="fill:#ff0000;fill-rule:evenodd;stroke:#ffffff;stroke-width:0.25;stroke-linecap:butt;stroke-linejoin:miter;stroke-opacity:1" />
    <polygon
       transform="matrix(0.1,0,0,0.1,3.5567287,-0.47209738)"
       id="c-4"
       points="8,16 8,10 9,9 10,10 10,16 9,17 "
       style="fill:#ff0000;fill-rule:evenodd;stroke:#ffffff;stroke-width:0.25;stroke-linecap:butt;stroke-linejoin:miter;stroke-opacity:1" />
    <polygon
       transform="matrix(0.1,0,0,0.1,3.5567287,-0.47209738)"
       id="d-5"
       points="2,16 8,16 9,17 8,18 2,18 1,17 "
       style="fill:#ff0000;fill-rule:evenodd;stroke:#ffffff;stroke-width:0.25;stroke-linecap:butt;stroke-linejoin:miter;stroke-opacity:1" />
    <polygon
       transform="matrix(0.1,0,0,0.1,3.5567287,-0.47209738)"
       id="e-11"
       points="2,10 2,16 1,17 0,16 0,10 1,9 "
       style="fill:#666666;fill-rule:evenodd;stroke:#ffffff;stroke-width:0.25;stroke-linecap:butt;stroke-linejoin:miter;stroke-opacity:1" />
    <polygon
       transform="matrix(0.1,0,0,0.1,3.5567287,-0.47209738)"
       id="f-4"
       points="2,2 2,8 1,9 0,8 0,2 1,1 "
       style="fill:#ff0000;fill-rule:evenodd;stroke:#ffffff;stroke-width:0.25;stroke-linecap:butt;stroke-linejoin:miter;stroke-opacity:1" />
    <polygon
       transform="matrix(0.1,0,0,0.1,3.5567287,-0.47209738)"
       id="g-4"
       points="8,10 2,10 1,9 2,8 8,8 9,9 "
       style="fill:#666666;fill-rule:evenodd;stroke:#ffffff;stroke-width:0.25;stroke-linecap:butt;stroke-linejoin:miter;stroke-opacity:1" />
  </g>
  <g
     id="g6238"
     transform="translate(0.01993465,0)">
    <polygon
       transform="matrix(0.1,0,0,0.1,4.6904948,-0.47209738)"
       id="a-2"
       points="9,1 8,2 2,2 1,1 2,0 8,0 "
       style="fill:#ff0000;fill-rule:evenodd;stroke:#ffffff;stroke-width:0.25;stroke-linecap:butt;stroke-linejoin:miter;stroke-opacity:1" />
    <polygon
       transform="matrix(0.1,0,0,0.1,4.6904948,-0.47209738)"
       id="b-37"
       points="9,9 8,8 8,2 9,1 10,2 10,8 "
       style="fill:#ff0000;fill-rule:evenodd;stroke:#ffffff;stroke-width:0.25;stroke-linecap:butt;stroke-linejoin:miter;stroke-opacity:1" />
    <polygon
       transform="matrix(0.1,0,0,0.1,4.6904948,-0.47209738)"
       id="c-41"
       points="9,17 8,16 8,10 9,9 10,10 10,16 "
       style="fill:#ff0000;fill-rule:evenodd;stroke:#ffffff;stroke-width:0.25;stroke-linecap:butt;stroke-linejoin:miter;stroke-opacity:1" />
    <polygon
       transform="matrix(0.1,0,0,0.1,4.6904948,-0.47209738)"
       id="d-8"
       points="1,17 2,16 8,16 9,17 8,18 2,18 "
       style="fill:#ff0000;fill-rule:evenodd;stroke:#ffffff;stroke-width:0.25;stroke-linecap:butt;stroke-linejoin:miter;stroke-opacity:1" />
    <polygon
       transform="matrix(0.1,0,0,0.1,4.6904948,-0.47209738)"
       id="e-0"
       points="1,9 2,10 2,16 1,17 0,16 0,10 "
       style="fill:#ff0000;fill-rule:evenodd;stroke:#ffffff;stroke-width:0.25;stroke-linecap:butt;stroke-linejoin:miter;stroke-opacity:1" />
    <polygon
       transform="matrix(0.1,0,0,0.1,4.6904948,-0.47209738)"
       id="f-6"
       points="1,1 2,2 2,8 1,9 0,8 0,2 "
       style="fill:#666666;fill-rule:evenodd;stroke:#ffffff;stroke-width:0.25;stroke-linecap:butt;stroke-linejoin:miter;stroke-opacity:1" />
    <polygon
       transform="matrix(0.1,0,0,0.1,4.6904948,-0.47209738)"
       id="g-0"
       points="9,9 8,10 2,10 1,9 2,8 8,8 "
       style="fill:#666666;fill-rule:evenodd;stroke:#ffffff;stroke-width:0.25;stroke-linecap:butt;stroke-linejoin:miter;stroke-opacity:1" />
  </g>
  <polygon
     style="fill:#666666;fill-rule:evenodd;stroke:#ffffff;stroke-width:0.25000000000000000;stroke-linecap:butt;stroke-linejoin:miter;stroke-opacity:1"
     points="2,2 1,1 2,0 8,0 9,1 8,2 "
     id="a-2-4"
     transform="matrix(0.1,0,0,0.1,5.8491795,-0.47209738)" />
  <polygon
     style="fill:#ff0000;fill-rule:evenodd;stroke:#ffffff;stroke-width:0.25;stroke-linecap:butt;stroke-linejoin:miter;stroke-opacity:1"
     points="8,2 9,1 10,2 10,8 9,9 8,8 "
     id="b-37-9"
     transform="matrix(0.1,0,0,0.1,5.8491795,-0.47209738)" />
  <polygon
     style="fill:#ff0000;fill-rule:evenodd;stroke:#ffffff;stroke-width:0.25;stroke-linecap:butt;stroke-linejoin:miter;stroke-opacity:1"
     points="8,10 9,9 10,10 10,16 9,17 8,16 "
     id="c-41-9"
     transform="matrix(0.1,0,0,0.1,5.8491795,-0.47209738)" />
  <polygon
     style="fill:#ff0000;fill-rule:evenodd;stroke:#ffffff;stroke-width:0.25;stroke-linecap:butt;stroke-linejoin:miter;stroke-opacity:1"
     points="8,16 9,17 8,18 2,18 1,17 2,16 "
     id="d-8-9"
     transform="matrix(0.1,0,0,0.1,5.8491795,-0.47209738)" />
  <polygon
     style="fill:#ff0000;fill-rule:evenodd;stroke:#ffffff;stroke-width:0.25;stroke-linecap:butt;stroke-linejoin:miter;stroke-opacity:1"
     points="2,16 1,17 0,16 0,10 1,9 2,10 "
     id="e-0-2"
     transform="matrix(0.1,0,0,0.1,5.8491795,-0.47209738)" />
  <polygon
     style="fill:#ff0000;fill-rule:evenodd;stroke:#ffffff;stroke-width:0.25000000000000000;stroke-linecap:butt;stroke-linejoin:miter;stroke-opacity:1"
     points="2,8 1,9 0,8 0,2 1,1 2,2 "
     id="f-6-0"
     transform="matrix(0.1,0,0,0.1,5.8491795,-0.47209738)" />
  <polygon
     style="fill:#666666;fill-rule:evenodd;stroke:#ffffff;stroke-width:0.25;stroke-linecap:butt;stroke-linejoin:miter;stroke-opacity:1"
     points="2,10 1,9 2,8 8,8 9,9 8,10 "
     id="g-0-6"
     transform="matrix(0.1,0,0,0.1,5.8491795,-0.47209738)" />
  <g
     id="g6379"
     transform="translate(0,-0.04695904)">
    <polygon
       transform="matrix(0.1,0,0,0.1,6.9879297,-0.42513834)"
       id="a-6"
       points="9,1 8,2 2,2 1,1 2,0 8,0 "
       style="fill:#ff0000;fill-rule:evenodd;stroke:#ffffff;stroke-width:0.25;stroke-linecap:butt;stroke-linejoin:miter;stroke-opacity:1" />
    <polygon
       transform="matrix(0.1,0,0,0.1,6.9879297,-0.42513834)"
       id="b-8"
       points="9,9 8,8 8,2 9,1 10,2 10,8 "
       style="fill:#666666;fill-rule:evenodd;stroke:#ffffff;stroke-width:0.25;stroke-linecap:butt;stroke-linejoin:miter;stroke-opacity:1" />
    <polygon
       transform="matrix(0.1,0,0,0.1,6.9879297,-0.42513834)"
       id="c-5"
       points="9,17 8,16 8,10 9,9 10,10 10,16 "
       style="fill:#ff0000;fill-rule:evenodd;stroke:#ffffff;stroke-width:0.25;stroke-linecap:butt;stroke-linejoin:miter;stroke-opacity:1" />
    <polygon
       transform="matrix(0.1,0,0,0.1,6.9879297,-0.42513834)"
       id="d-0"
       points="1,17 2,16 8,16 9,17 8,18 2,18 "
       style="fill:#ff0000;fill-rule:evenodd;stroke:#ffffff;stroke-width:0.25;stroke-linecap:butt;stroke-linejoin:miter;stroke-opacity:1" />
    <polygon
       transform="matrix(0.1,0,0,0.1,6.9879297,-0.42513834)"
       id="e-6"
       points="1,9 2,10 2,16 1,17 0,16 0,10 "
       style="fill:#ff0000;fill-rule:evenodd;stroke:#ffffff;stroke-width:0.25;stroke-linecap:butt;stroke-linejoin:miter;stroke-opacity:1" />
    <polygon
       transform="matrix(0.1,0,0,0.1,6.9879297,-0.42513834)"
       id="f-7"
       points="1,1 2,2 2,8 1,9 0,8 0,2 "
       style="fill:#ff0000;fill-rule:evenodd;stroke:#ffffff;stroke-width:0.25;stroke-linecap:butt;stroke-linejoin:miter;stroke-opacity:1" />
    <polygon
       transform="matrix(0.1,0,0,0.1,6.9879297,-0.42513834)"
       id="g-3"
       points="9,9 8,10 2,10 1,9 2,8 8,8 "
       style="fill:#666666;fill-rule:evenodd;stroke:#ffffff;stroke-width:0.25;stroke-linecap:butt;stroke-linejoin:miter;stroke-opacity:1" />
  </g>
</svg>
